<svg viewBox="0 0 96 96" xmlns="http://www.w3.org/2000/svg" role="img" aria-labelledby="cc-icon-title cc-icon-desc">
  <title id="cc-icon-title">ConCourse</title>
  <desc id="cc-icon-desc">A C-shaped course track with a route rising toward a summit.</desc>
  <defs>
    <linearGradient id="cc-icon-base" x1="10" y1="8" x2="88" y2="92" gradientUnits="userSpaceOnUse">
      <stop stop-color="#0D315C"/>
      <stop offset="0.56" stop-color="#071D3A"/>
      <stop offset="1" stop-color="#041225"/>
    </linearGradient>
    <linearGradient id="cc-icon-route" x1="33" y1="64" x2="78" y2="34" gradientUnits="userSpaceOnUse">
      <stop stop-color="#8BD8FF"/>
      <stop offset="1" stop-color="#477CFF"/>
    </linearGradient>
    <filter id="cc-icon-glow" x="-30%" y="-30%" width="160%" height="160%">
      <feGaussianBlur stdDeviation="2.2"/>
    </filter>
  </defs>
  <rect x="3" y="3" width="90" height="90" rx="26" fill="url(#cc-icon-base)"/>
  <path d="M68.5 24.7C62.6 19.1 54.8 16 46.5 16C28.8 16 14.5 30.3 14.5 48S28.8 80 46.5 80C55.4 80 63.5 76.4 69.3 70.6" fill="none" stroke="#F7F3EA" stroke-width="10.5" stroke-linecap="round"/>
  <path d="M34.5 63.5 47.5 50.5 56.5 59.3 76.5 35.5" fill="none" stroke="#5C8DFF" stroke-width="11" stroke-linecap="round" stroke-linejoin="round" opacity=".24" filter="url(#cc-icon-glow)"/>
  <path d="M34.5 63.5 47.5 50.5 56.5 59.3 76.5 35.5" fill="none" stroke="url(#cc-icon-route)" stroke-width="7.5" stroke-linecap="round" stroke-linejoin="round"/>
  <circle cx="34.5" cy="63.5" r="3.1" fill="#F7F3EA"/>
  <circle cx="47.5" cy="50.5" r="3.1" fill="#F7F3EA"/>
  <circle cx="56.5" cy="59.3" r="3.1" fill="#F7F3EA"/>
  <path d="M65 35.5H76.5V47" fill="none" stroke="#EFC36A" stroke-width="7.5" stroke-linecap="round" stroke-linejoin="round"/>
  <circle cx="76.5" cy="35.5" r="2.6" fill="#FFF7DE"/>
</svg>
