<svg viewBox="0 0 460 96" xmlns="http://www.w3.org/2000/svg" role="img" aria-labelledby="cc-logo-title cc-logo-desc">
  <title id="cc-logo-title">ConCourse</title>
  <desc id="cc-logo-desc">ConCourse wordmark with a C-shaped course track rising toward a summit.</desc>
  <defs>
    <linearGradient id="cc-logo-base" x1="10" y1="8" x2="88" y2="92" gradientUnits="userSpaceOnUse">
      <stop stop-color="#0D315C"/>
      <stop offset="0.56" stop-color="#071D3A"/>
      <stop offset="1" stop-color="#041225"/>
    </linearGradient>
    <linearGradient id="cc-logo-route" x1="33" y1="64" x2="78" y2="34" gradientUnits="userSpaceOnUse">
      <stop stop-color="#8BD8FF"/>
      <stop offset="1" stop-color="#477CFF"/>
    </linearGradient>
  </defs>
  <g>
    <rect x="3" y="3" width="90" height="90" rx="26" fill="url(#cc-logo-base)"/>
    <path d="M68.5 24.7C62.6 19.1 54.8 16 46.5 16C28.8 16 14.5 30.3 14.5 48S28.8 80 46.5 80C55.4 80 63.5 76.4 69.3 70.6" fill="none" stroke="#F7F3EA" stroke-width="10.5" stroke-linecap="round"/>
    <path d="M34.5 63.5 47.5 50.5 56.5 59.3 76.5 35.5" fill="none" stroke="url(#cc-logo-route)" stroke-width="7.5" stroke-linecap="round" stroke-linejoin="round"/>
    <circle cx="34.5" cy="63.5" r="3.1" fill="#F7F3EA"/>
    <circle cx="47.5" cy="50.5" r="3.1" fill="#F7F3EA"/>
    <circle cx="56.5" cy="59.3" r="3.1" fill="#F7F3EA"/>
    <path d="M65 35.5H76.5V47" fill="none" stroke="#EFC36A" stroke-width="7.5" stroke-linecap="round" stroke-linejoin="round"/>
  </g>
  <text x="116" y="55" fill="#071D3A" font-family="-apple-system, BlinkMacSystemFont, 'Segoe UI', Arial, sans-serif" font-size="38" font-weight="760" letter-spacing="-1.4">ConCourse</text>
  <text x="118" y="76" fill="#46617E" font-family="-apple-system, BlinkMacSystemFont, 'Segoe UI', Arial, sans-serif" font-size="9.5" font-weight="750" letter-spacing="1.75">CONQUER EVERY COURSE</text>
  <path d="M360 72h46l10-10" fill="none" stroke="#78A9FF" stroke-width="2.5" stroke-linecap="round"/>
  <path d="M411 62h6v6" fill="none" stroke="#EFC36A" stroke-width="2.5" stroke-linecap="round" stroke-linejoin="round"/>
</svg>
