<svg width="100" height="100" viewBox="0 0 100 100" xmlns="http://www.w3.org/2000/svg" role="img" aria-label="ConCourse icon">
  <rect x="0" y="0" width="100" height="100" rx="26" fill="#4361ee"/>
  <rect x="22" y="46" width="56" height="40" rx="8" fill="#ffffff"/>
  <circle cx="36" cy="51" r="1.4" fill="#c6d2f2"/>
  <circle cx="64" cy="51" r="1.4" fill="#c6d2f2"/>
  <line x1="26" y1="56" x2="74" y2="56" stroke="#d0daf0" stroke-width="1.5"/>
  <line x1="40.7" y1="56" x2="40.7" y2="86" stroke="#e2e8f6" stroke-width="1.4"/>
  <line x1="59.3" y1="56" x2="59.3" y2="86" stroke="#e2e8f6" stroke-width="1.4"/>
  <line x1="22" y1="68" x2="78" y2="68" stroke="#e2e8f6" stroke-width="1.4"/>
  <line x1="22" y1="79" x2="78" y2="79" stroke="#e2e8f6" stroke-width="1.4"/>
  <rect x="25" y="59" width="13" height="6.5" rx="2" fill="#10b981"/>
  <rect x="61" y="59" width="13" height="6.5" rx="2" fill="#cdd8f2"/>
  <rect x="25" y="70.5" width="13" height="6.5" rx="2" fill="#e3e9f6"/>
  <rect x="61" y="70.5" width="13" height="6.5" rx="2" fill="#cdd8f2"/>
  <rect x="34" y="37" width="32" height="6" rx="3" fill="#ffc24b"/>
  <rect x="34" y="41.5" width="32" height="2" rx="1" fill="#e59a1f"/>
  <circle cx="34" cy="40" r="2.2" fill="#ffc24b"/>
  <circle cx="66" cy="40" r="2.2" fill="#ffc24b"/>
  <polygon points="45.5,40 54.5,40 54.5,74 50,83 45.5,74" fill="#e7ecf6" stroke="#a9b7d4" stroke-width="1" stroke-linejoin="round"/>
  <line x1="50" y1="45" x2="50" y2="75" stroke="#ccd6ec" stroke-width="1"/>
  <rect x="47" y="19" width="6" height="19" rx="2" fill="#e59a1f"/>
  <path d="M42 19 L42 13 L46 15.5 L50 10 L54 15.5 L58 13 L58 19 Z" fill="#ffc24b"/>
  <rect x="41.5" y="18" width="17" height="2.4" rx="1.2" fill="#e59a1f"/>
  <circle cx="42" cy="13" r="1.3" fill="#fff3d6"/>
  <circle cx="50" cy="10" r="1.5" fill="#fff3d6"/>
  <circle cx="58" cy="13" r="1.3" fill="#fff3d6"/>
</svg>
